<?xml version="1.0" encoding="UTF-8"?>
<svg xmlns="http://www.w3.org/2000/svg" xmlns:xlink="http://www.w3.org/1999/xlink" viewBox="0 0 217 217" width="217px" height="217px">
<g id="surface3946895">
<path style=" stroke:none;fill-rule:nonzero;fill:rgb(60.784316%,34.901962%,71.372551%);fill-opacity:1;" d="M 27.125 198.917969 L 27.125 126.582031 C 27.125 81.640625 63.558594 45.207031 108.5 45.207031 C 153.441406 45.207031 189.875 81.640625 189.875 126.582031 L 189.875 198.917969 "/>
<path style=" stroke:none;fill-rule:nonzero;fill:rgb(96.078432%,73.725492%,0%);fill-opacity:1;" d="M 176.148438 81.375 L 135.625 81.375 C 125.632812 81.375 117.542969 73.28125 117.542969 63.292969 L 117.542969 42.703125 C 122.921875 39.566406 126.582031 33.796875 126.582031 27.125 C 126.582031 17.132812 118.492188 9.042969 108.5 9.042969 C 98.507812 9.042969 90.417969 17.132812 90.417969 27.125 C 90.417969 33.796875 94.078125 39.566406 99.457031 42.703125 L 99.457031 63.292969 C 99.457031 73.28125 91.367188 81.375 81.375 81.375 L 40.851562 81.375 C 37.125 86.945312 34.132812 93.03125 31.855469 99.457031 L 185.144531 99.457031 C 182.867188 93.03125 179.882812 86.945312 176.148438 81.375 Z M 176.148438 81.375 "/>
<path style=" stroke:none;fill-rule:nonzero;fill:rgb(99.215686%,50.588238%,42.352942%);fill-opacity:1;" d="M 185.144531 99.457031 C 185.140625 99.449219 185.136719 99.4375 185.132812 99.425781 C 184.164062 96.699219 183.042969 94.050781 181.820312 91.464844 C 181.503906 90.804688 181.203125 90.140625 180.871094 89.496094 C 180.359375 88.484375 179.824219 87.496094 179.273438 86.515625 C 178.328125 84.851562 177.351562 83.207031 176.292969 81.613281 C 176.246094 81.539062 176.199219 81.457031 176.144531 81.375 L 135.625 81.375 C 125.632812 81.375 117.542969 73.28125 117.542969 63.292969 L 117.542969 45.738281 C 114.570312 45.410156 111.5625 45.207031 108.5 45.207031 C 105.4375 45.207031 102.429688 45.410156 99.457031 45.738281 L 99.457031 63.292969 C 99.457031 73.28125 91.367188 81.375 81.375 81.375 L 40.851562 81.375 C 40.796875 81.457031 40.746094 81.542969 40.691406 81.628906 C 39.648438 83.195312 38.6875 84.820312 37.753906 86.464844 C 37.179688 87.484375 36.625 88.511719 36.09375 89.558594 C 35.796875 90.144531 35.519531 90.746094 35.234375 91.339844 C 33.988281 93.964844 32.84375 96.65625 31.863281 99.421875 C 31.863281 99.4375 31.859375 99.449219 31.855469 99.457031 Z M 185.144531 99.457031 "/>
<path style=" stroke:none;fill-rule:nonzero;fill:rgb(98.039216%,78.431374%,83.529413%);fill-opacity:1;" d="M 63.292969 117.542969 L 63.292969 144.667969 C 63.292969 163.191406 74.46875 179.078125 90.417969 186.058594 L 90.417969 198.917969 L 126.582031 198.917969 L 126.582031 186.058594 C 142.53125 179.078125 153.707031 163.191406 153.707031 144.667969 L 153.707031 117.542969 Z M 63.292969 117.542969 "/>
<path style=" stroke:none;fill-rule:nonzero;fill:rgb(12.941177%,0%,76.862746%);fill-opacity:1;" d="M 90.417969 135.625 C 90.417969 140.617188 86.367188 144.667969 81.375 144.667969 C 76.382812 144.667969 72.332031 140.617188 72.332031 135.625 C 72.332031 130.632812 76.382812 126.582031 81.375 126.582031 C 86.367188 126.582031 90.417969 130.632812 90.417969 135.625 Z M 90.417969 135.625 "/>
<path style=" stroke:none;fill-rule:nonzero;fill:rgb(12.941177%,0%,76.862746%);fill-opacity:1;" d="M 144.667969 135.625 C 144.667969 140.617188 140.617188 144.667969 135.625 144.667969 C 130.632812 144.667969 126.582031 140.617188 126.582031 135.625 C 126.582031 130.632812 130.632812 126.582031 135.625 126.582031 C 140.617188 126.582031 144.667969 130.632812 144.667969 135.625 Z M 144.667969 135.625 "/>
<path style=" stroke:none;fill-rule:nonzero;fill:rgb(12.941177%,0%,76.862746%);fill-opacity:1;" d="M 108.5 171.792969 C 118.492188 171.792969 126.582031 163.699219 126.582031 153.707031 L 90.417969 153.707031 C 90.417969 163.699219 98.507812 171.792969 108.5 171.792969 Z M 108.5 171.792969 "/>
</g>
</svg>
